<svg width="30" height="30" viewBox="0 0 30 30" fill="none" xmlns="http://www.w3.org/2000/svg">
<circle cx="15" cy="15" r="15" fill="#0B51C5"/>
<g clip-path="url(#clip0_4912_321)">
<path d="M16.5 8.25V11.25C16.5 11.4489 16.579 11.6397 16.7197 11.7803C16.8603 11.921 17.0511 12 17.25 12H20.25" stroke="white" stroke-width="1.5" stroke-linecap="round" stroke-linejoin="round"/>
<path d="M18.75 21.75H11.25C10.8522 21.75 10.4706 21.592 10.1893 21.3107C9.90804 21.0294 9.75 20.6478 9.75 20.25V9.75C9.75 9.35218 9.90804 8.97064 10.1893 8.68934C10.4706 8.40804 10.8522 8.25 11.25 8.25H16.5L20.25 12V20.25C20.25 20.6478 20.092 21.0294 19.8107 21.3107C19.5294 21.592 19.1478 21.75 18.75 21.75Z" stroke="white" stroke-width="1.5" stroke-linecap="round" stroke-linejoin="round"/>
<path d="M15 14.25V18.75" stroke="white" stroke-width="1.5" stroke-linecap="round" stroke-linejoin="round"/>
<path d="M13.125 16.125L15 14.25L16.875 16.125" stroke="white" stroke-width="1.5" stroke-linecap="round" stroke-linejoin="round"/>
</g>
<defs>
<clipPath id="clip0_4912_321">
<rect width="18" height="18" fill="white" transform="translate(6 6)"/>
</clipPath>
</defs>
</svg>
